<svg width="67" height="68" viewBox="0 0 67 68" fill="none" xmlns="http://www.w3.org/2000/svg">
<path fill-rule="evenodd" clip-rule="evenodd" d="M35.3063 0.0412268C43.6028 0.448973 51.3336 3.87022 57.2383 9.77885C63.5366 16.0811 67.0034 24.4585 67 33.3675C66.9925 51.752 52.0259 66.7104 33.6403 66.7104C26.7264 66.7104 21.2322 64.5862 17.6846 62.6521L0 67.2887L4.73281 50.0103C1.81346 44.9538 0.277312 39.2179 0.279719 33.341C0.287102 14.957 15.2523 0 33.6399 0L35.3063 0.0412268ZM18.5039 56.6158L19.5165 57.2163C23.7737 59.7414 28.6535 61.0774 33.6289 61.0793H33.6402C48.9228 61.0793 61.3613 48.6467 61.3674 33.3656C61.3702 25.9605 58.4889 18.9976 53.254 13.7593C48.0188 8.52065 41.0572 5.63402 33.6513 5.63161C18.3569 5.63161 5.9183 18.0629 5.9122 33.3429C5.91012 38.5796 7.37597 43.6795 10.1515 48.0917L10.8108 49.1405L8.00972 59.3672L18.5039 56.6158ZM50.4466 41.2964C50.2383 40.9487 49.6827 40.7403 48.8492 40.3232C48.0156 39.9062 43.9175 37.8907 43.1535 37.6124C42.3894 37.3348 41.8337 37.1958 41.2781 38.0296C40.7225 38.8636 39.125 40.7403 38.6386 41.2964C38.1525 41.8524 37.6662 41.922 36.8328 41.5049C35.9993 41.088 33.3134 40.2081 30.1296 37.3697C27.6516 35.1605 25.9787 32.4323 25.4924 31.5982C25.0063 30.7643 25.4406 30.3132 25.8579 29.898C26.2329 29.5245 26.6916 28.9248 27.1083 28.4383C27.5251 27.9519 27.6639 27.6042 27.9419 27.0484C28.2197 26.4923 28.0807 26.0059 27.8724 25.5889C27.6639 25.1717 25.997 21.0708 25.3024 19.4026C24.6257 17.7782 23.9385 17.9981 23.4269 17.9724C22.9412 17.9484 22.385 17.9431 21.8294 17.9431C21.2737 17.9431 20.3706 18.1514 19.6066 18.9857C18.8425 19.8196 16.6891 21.8354 16.6891 25.936C16.6891 30.037 19.6761 33.9984 20.0928 34.5545C20.5096 35.1108 25.9705 43.5255 34.3322 47.1346C36.3209 47.9931 37.8736 48.5056 39.0841 48.8896C41.081 49.5237 42.898 49.4343 44.3343 49.2197C45.9358 48.9805 49.266 47.2042 49.9605 45.2584C50.6551 43.3119 50.6551 41.6438 50.4466 41.2964Z" fill="white"/>
</svg>
