<svg width="16" height="24" viewBox="0 0 16 24" fill="none" xmlns="http://www.w3.org/2000/svg">
<mask id="path-1-outside-1_0_69" maskUnits="userSpaceOnUse" x="-0.91337" y="-0.91337" width="16.4379" height="25.6842" fill="black">
<rect fill="white" x="-0.91337" y="-0.91337" width="16.4379" height="25.6842"/>
<path fill-rule="evenodd" clip-rule="evenodd" d="M7.734 1.14137C5.60998 1.14137 3.88813 2.86322 3.88813 4.98723V11.8671C3.88813 13.9911 5.60998 15.7129 7.734 15.7129C9.85801 15.7129 11.5799 13.9911 11.5799 11.8671V4.98724C11.5799 2.86322 9.85801 1.14137 7.734 1.14137ZM2.5385 11.3596C2.5385 10.9738 2.22574 10.6611 1.83993 10.6611C1.45413 10.6611 1.14137 10.9738 1.14137 11.3596C1.14137 15.3192 3.62445 18.7944 7.03552 19.2157V22.16C7.03552 22.5459 7.34828 22.8586 7.73408 22.8586C8.11989 22.8586 8.43265 22.5459 8.43265 22.16V19.2157C11.8437 18.7944 14.3268 15.3192 14.3268 11.3596C14.3268 10.9738 14.014 10.6611 13.6282 10.6611C13.2424 10.6611 12.9297 10.9738 12.9297 11.3596C12.9297 15.0877 10.4793 17.8613 7.73408 17.8613C4.98888 17.8613 2.5385 15.0877 2.5385 11.3596Z"/>
</mask>
<path fill-rule="evenodd" clip-rule="evenodd" d="M7.734 1.14137C5.60998 1.14137 3.88813 2.86322 3.88813 4.98723V11.8671C3.88813 13.9911 5.60998 15.7129 7.734 15.7129C9.85801 15.7129 11.5799 13.9911 11.5799 11.8671V4.98724C11.5799 2.86322 9.85801 1.14137 7.734 1.14137ZM2.5385 11.3596C2.5385 10.9738 2.22574 10.6611 1.83993 10.6611C1.45413 10.6611 1.14137 10.9738 1.14137 11.3596C1.14137 15.3192 3.62445 18.7944 7.03552 19.2157V22.16C7.03552 22.5459 7.34828 22.8586 7.73408 22.8586C8.11989 22.8586 8.43265 22.5459 8.43265 22.16V19.2157C11.8437 18.7944 14.3268 15.3192 14.3268 11.3596C14.3268 10.9738 14.014 10.6611 13.6282 10.6611C13.2424 10.6611 12.9297 10.9738 12.9297 11.3596C12.9297 15.0877 10.4793 17.8613 7.73408 17.8613C4.98888 17.8613 2.5385 15.0877 2.5385 11.3596Z" fill="#45AFFE"/>
<path d="M7.03552 19.2157H8.17691V18.2066L7.17543 18.0829L7.03552 19.2157ZM8.43265 19.2157L8.29274 18.0829L7.29126 18.2066V19.2157H8.43265ZM5.02952 4.98723C5.02952 3.49359 6.24035 2.28276 7.734 2.28276V-2.51067e-05C4.97961 -2.51067e-05 2.74673 2.23284 2.74673 4.98723H5.02952ZM5.02952 11.8671V4.98723H2.74673V11.8671H5.02952ZM7.734 14.5716C6.24035 14.5716 5.02952 13.3607 5.02952 11.8671H2.74673C2.74673 14.6215 4.97961 16.8543 7.734 16.8543V14.5716ZM10.4385 11.8671C10.4385 13.3607 9.22764 14.5716 7.734 14.5716V16.8543C10.4884 16.8543 12.7213 14.6215 12.7213 11.8671H10.4385ZM10.4385 4.98724V11.8671H12.7213V4.98724H10.4385ZM7.734 2.28276C9.22764 2.28276 10.4385 3.4936 10.4385 4.98724H12.7213C12.7213 2.23285 10.4884 -2.51067e-05 7.734 -2.51067e-05V2.28276ZM1.83993 11.8025C1.59537 11.8025 1.39711 11.6042 1.39711 11.3596H3.67989C3.67989 10.3435 2.85612 9.51968 1.83993 9.51968V11.8025ZM2.28276 11.3596C2.28276 11.6042 2.0845 11.8025 1.83993 11.8025V9.51968C0.823752 9.51968 -2.51067e-05 10.3435 -2.51067e-05 11.3596H2.28276ZM7.17543 18.0829C4.50344 17.7529 2.28276 14.9288 2.28276 11.3596H-2.51067e-05C-2.51067e-05 15.7095 2.74547 19.8359 6.8956 20.3485L7.17543 18.0829ZM8.17691 22.16V19.2157H5.89413V22.16H8.17691ZM7.73408 21.7172C7.97865 21.7172 8.17691 21.9155 8.17691 22.16H5.89413C5.89413 23.1762 6.7179 24 7.73408 24V21.7172ZM7.29126 22.16C7.29126 21.9155 7.48951 21.7172 7.73408 21.7172V24C8.75027 24 9.57404 23.1762 9.57404 22.16H7.29126ZM7.29126 19.2157V22.16H9.57404V19.2157H7.29126ZM13.1854 11.3596C13.1854 14.9288 10.9647 17.7529 8.29274 18.0829L8.57256 20.3485C12.7227 19.8359 15.4682 15.7095 15.4682 11.3596H13.1854ZM13.6282 11.8025C13.3837 11.8025 13.1854 11.6042 13.1854 11.3596H15.4682C15.4682 10.3435 14.6444 9.51968 13.6282 9.51968V11.8025ZM14.0711 11.3596C14.0711 11.6042 13.8728 11.8025 13.6282 11.8025V9.51968C12.6121 9.51968 11.7883 10.3435 11.7883 11.3596H14.0711ZM7.73408 19.0027C11.306 19.0027 14.0711 15.5019 14.0711 11.3596H11.7883C11.7883 14.6735 9.65253 16.72 7.73408 16.72V19.0027ZM1.39711 11.3596C1.39711 15.5019 4.16212 19.0027 7.73408 19.0027V16.72C5.81563 16.72 3.67989 14.6735 3.67989 11.3596H1.39711Z" fill="#E7FED8" mask="url(#path-1-outside-1_0_69)"/>
</svg>
