<svg width="6" height="6" viewBox="0 0 6 6" fill="none" xmlns="http://www.w3.org/2000/svg">
<mask id="path-1-inside-1_0_135" fill="white">
<path fill-rule="evenodd" clip-rule="evenodd" d="M0 0V5C0 5.55228 0.447715 6 1 6H6V5.41421C6 5.14927 5.89486 4.89517 5.70769 4.70769C5.70749 4.70749 5.7073 4.7073 5.70711 4.70711L1.29289 0.292893C1.10536 0.105357 0.851004 0 0.585787 0H0Z"/>
</mask>
<path fill-rule="evenodd" clip-rule="evenodd" d="M0 0V5C0 5.55228 0.447715 6 1 6H6V5.41421C6 5.14927 5.89486 4.89517 5.70769 4.70769C5.70749 4.70749 5.7073 4.7073 5.70711 4.70711L1.29289 0.292893C1.10536 0.105357 0.851004 0 0.585787 0H0Z" fill="#EFEFEF"/>
<path d="M0 0V-0.5H-0.5V0H0ZM6 6V6.5H6.5V6H6ZM5.70769 4.70769L5.3537 5.06081L5.35384 5.06095L5.70769 4.70769ZM5.70711 4.70711L6.06066 4.35355L5.70711 4.70711ZM1.29289 0.292893L0.939339 0.646446L0.939339 0.646447L1.29289 0.292893ZM0.5 5V0H-0.5V5H0.5ZM1 5.5C0.723858 5.5 0.5 5.27614 0.5 5H-0.5C-0.5 5.82843 0.171573 6.5 1 6.5V5.5ZM6 5.5H1V6.5H6V5.5ZM6.5 6V5.41421H5.5V6H6.5ZM6.5 5.41421C6.5 5.0168 6.34229 4.63565 6.06153 4.35443L5.35384 5.06095C5.44743 5.15469 5.5 5.28174 5.5 5.41421H6.5ZM6.06168 4.35457C6.06123 4.35412 6.06082 4.35371 6.06066 4.35355L5.35355 5.06066L5.3537 5.06081L6.06168 4.35457ZM0.939339 0.646447L5.35355 5.06066L6.06066 4.35355L1.64645 -0.0606602L0.939339 0.646447ZM1.64645 -0.06066C1.36514 -0.341964 0.983612 -0.5 0.585787 -0.5V0.5C0.718395 0.5 0.845571 0.552678 0.939339 0.646446L1.64645 -0.06066ZM0.585787 -0.5H0V0.5H0.585787V-0.5Z" fill="#D9D9DA" mask="url(#path-1-inside-1_0_135)"/>
</svg>
