<svg width="20" height="20" viewBox="0 0 20 20" fill="none" xmlns="http://www.w3.org/2000/svg">
<path d="M13.0047 14.2139L14.6844 12.491C14.9106 12.2618 15.1968 12.1049 15.5083 12.0394C15.8198 11.9739 16.1431 12.0025 16.439 12.1218L18.4861 12.9602C18.7851 13.0847 19.0415 13.2972 19.223 13.5709C19.4045 13.8447 19.5029 14.1674 19.5059 14.4985V18.3442C19.5041 18.5694 19.458 18.7919 19.3702 18.9983C19.2824 19.2047 19.1548 19.3908 18.9951 19.5453C18.8354 19.6998 18.6468 19.8195 18.4408 19.8973C18.2347 19.9751 18.0155 20.0093 17.7962 19.9979C3.45176 19.0826 0.55737 6.62239 0.00998598 1.85368C-0.015424 1.6195 0.00779243 1.38246 0.0781077 1.15814C0.148423 0.933831 0.264244 0.727331 0.41795 0.55223C0.571656 0.377128 0.759765 0.237394 0.969901 0.142219C1.18004 0.0470439 1.40744 -0.00141458 1.63714 3.14343e-05H5.25887C5.58206 0.0010127 5.89757 0.101149 6.16483 0.287561C6.43208 0.473973 6.63886 0.738136 6.75856 1.04607L7.57588 3.14584C7.69605 3.44817 7.7267 3.78011 7.66403 4.10021C7.60135 4.4203 7.44811 4.71436 7.22346 4.94565L5.54381 6.66854C5.54381 6.66854 6.51111 13.3832 13.0047 14.2139Z" fill="white"/>
</svg>
