<svg width="22" height="15" viewBox="0 0 22 15" fill="none" xmlns="http://www.w3.org/2000/svg">
<path d="M14.9286 14.966H1.57143C1.15466 14.966 0.754961 14.8083 0.460261 14.5276C0.165561 14.247 0 13.8663 0 13.4694V1.4966C0 1.09968 0.165561 0.71901 0.460261 0.438344C0.754961 0.157677 1.15466 0 1.57143 0H14.9286C15.3453 0 15.745 0.157677 16.0397 0.438344C16.3344 0.71901 16.5 1.09968 16.5 1.4966V4.53469L20.7586 1.63878C20.8758 1.55925 21.0138 1.51195 21.1574 1.50201C21.301 1.49208 21.4446 1.51991 21.5727 1.58245C21.7008 1.645 21.8084 1.73986 21.8838 1.85668C21.9591 1.97351 21.9993 2.1078 22 2.2449V12.7211C21.9993 12.8582 21.9591 12.9925 21.8838 13.1093C21.8084 13.2261 21.7008 13.321 21.5727 13.3835C21.4446 13.4461 21.301 13.4739 21.1574 13.464C21.0138 13.454 20.8758 13.4067 20.7586 13.3272L16.5 10.4313V13.4694C16.5 13.8663 16.3344 14.247 16.0397 14.5276C15.745 14.8083 15.3453 14.966 14.9286 14.966Z" fill="white"/>
</svg>
