<svg xmlns="http://www.w3.org/2000/svg" viewBox="0 0 512 512">
  <path fill="currentColor" d="M0 80v160c0 17.7 14.3 32 32 32h192c17.7 0 32-14.3 32-32V80c0-17.7-14.3-32-32-32H32C14.3 48 0 62.3 0 80zm32 160V80h192v160H32zM256 80v160c0 17.7 14.3 32 32 32h192c17.7 0 32-14.3 32-32V80c0-17.7-14.3-32-32-32H288c-17.7 0-32 14.3-32 32zm32 160V80h192v160H288zM0 272v160c0 17.7 14.3 32 32 32h192c17.7 0 32-14.3 32-32V272c0-17.7-14.3-32-32-32H32c-17.7 0-32 14.3-32 32zm32 160V272h192v160H32zM256 272v160c0 17.7 14.3 32 32 32h192c17.7 0 32-14.3 32-32V272c0-17.7-14.3-32-32-32H288c-17.7 0-32 14.3-32 32zm32 160V272h192v160H288z"/>
</svg>
