<svg xmlns="http://www.w3.org/2000/svg" viewBox="0 0 512 512"><!--!Font Awesome Free 6.5.2 by @fontawesome - https://fontawesome.com License - https://fontawesome.com/license/free Copyright 2024 Fonticons, Inc.--><path d="M128 160h256c17.7 0 32-14.3 32-32s-14.3-32-32-32H128c-17.7 0-32 14.3-32 32s14.3 32 32 32zm0 192h256c17.7 0 32-14.3 32-32s-14.3-32-32-32H128c-17.7 0-32 14.3-32 32s14.3 32 32 32zM512 80V432c0 26.5-21.5 48-48 48H48c-26.5 0-48-21.5-48-48V80c0-26.5 21.5-48 48-48h416c26.5 0 48 21.5 48 48zM464 80c0-8.8-7.2-16-16-16H64c-8.8 0-16 7.2-16 16v352c0 8.8 7.2 16 16 16h384c8.8 0 16-7.2 16-16V80z"/></svg>